<?xml version="1.0" encoding="UTF-8" standalone="no"?>
<!-- Generator: Adobe Illustrator 15.1.0, SVG Export Plug-In . SVG Version: 6.00 Build 0)  -->

<svg
   xmlns:dc="http://purl.org/dc/elements/1.1/"
   xmlns:cc="http://creativecommons.org/ns#"
   xmlns:rdf="http://www.w3.org/1999/02/22-rdf-syntax-ns#"
   xmlns:svg="http://www.w3.org/2000/svg"
   xmlns="http://www.w3.org/2000/svg"
   xmlns:sodipodi="http://sodipodi.sourceforge.net/DTD/sodipodi-0.dtd"
   xmlns:inkscape="http://www.inkscape.org/namespaces/inkscape"
   version="1.1"
   id="Layer_1"
   x="0px"
   y="0px"
   width="177.511"
   height="153.85899"
   viewBox="0 0 177.51099 153.85899"
   enable-background="new 0 0 595.28 841.89"
   xml:space="preserve"
   sodipodi:docname="ccc_wi_logo_1.svg"
   inkscape:version="0.92.2 5c3e80d, 2017-08-06"><metadata
     id="metadata17"><rdf:RDF><cc:Work
         rdf:about=""><dc:format>image/svg+xml</dc:format><dc:type
           rdf:resource="http://purl.org/dc/dcmitype/StillImage" /><dc:title></dc:title></cc:Work></rdf:RDF></metadata><defs
     id="defs15" /><sodipodi:namedview
     pagecolor="#ffffff"
     bordercolor="#666666"
     borderopacity="1"
     objecttolerance="10"
     gridtolerance="10"
     guidetolerance="10"
     inkscape:pageopacity="0"
     inkscape:pageshadow="2"
     inkscape:window-width="1366"
     inkscape:window-height="768"
     id="namedview13"
     showgrid="false"
     fit-margin-top="10"
     fit-margin-left="10"
     fit-margin-right="10"
     fit-margin-bottom="10"
     inkscape:zoom="0.6"
     inkscape:cx="43.331583"
     inkscape:cy="77.054988"
     inkscape:window-x="0"
     inkscape:window-y="0"
     inkscape:window-maximized="0"
     inkscape:current-layer="Layer_1" /><path
     d="m 153.77,143.859 h 13.74 V 104.393 H 153.77 Z M 133.389,82.79 v 47.405 H 123.16 V 90.653 h -13.664 v 39.542 H 98.198 V 82.79 H 84.534 v 61.069 h 62.519 V 82.79 Z m 20.381,13.741 h 13.74 v -13.74 h -13.74 z"
     id="path2"
     inkscape:connector-curvature="0" /><polygon
     points="266.904,415.209 266.904,401.545 232.782,401.545 232.782,367.805 266.904,367.805 266.904,354.141 219.118,354.141 219.118,415.209 "
     id="polygon4"
     transform="translate(-209,-344.141)" /><polygon
     points="321.707,415.209 321.707,401.545 287.585,401.545 287.585,367.805 321.707,367.805 321.707,354.141 273.921,354.141 273.921,415.209 "
     id="polygon6"
     transform="translate(-209,-344.141)" /><polygon
     points="376.511,415.209 376.511,401.545 342.389,401.545 342.389,367.805 376.511,367.805 376.511,354.141 328.725,354.141 328.725,415.209 "
     id="polygon8"
     transform="translate(-209,-344.141)" /><rect
     x="10"
     y="134.54895"
     width="48.118"
     height="9.3100004"
     id="rect10" /></svg>